<svg xmlns="http://www.w3.org/2000/svg" viewBox="0 0 512 512" role="img" aria-label="Dragon avatar">
  <defs>
    <linearGradient id="sky" x1="0" y1="0" x2="1" y2="1">
      <stop offset="0%" stop-color="#240b36"/>
      <stop offset="100%" stop-color="#8a2c0d"/>
    </linearGradient>
    <linearGradient id="scale" x1="0" y1="0" x2="1" y2="1">
      <stop offset="0%" stop-color="#ff8a3d"/>
      <stop offset="100%" stop-color="#d64214"/>
    </linearGradient>
  </defs>
  <rect width="512" height="512" fill="url(#sky)"/>
  <circle cx="256" cy="256" r="210" fill="#ffffff10"/>
  <path d="M130 320c0-112 84-184 126-184s126 72 126 184H130z" fill="url(#scale)"/>
  <path d="M166 229l50-120 47 70 47-70 50 120-46-32-51 35-51-35z" fill="#ffb35f"/>
  <ellipse cx="203" cy="276" rx="36" ry="42" fill="#fff7ef"/>
  <ellipse cx="309" cy="276" rx="36" ry="42" fill="#fff7ef"/>
  <ellipse cx="203" cy="281" rx="15" ry="19" fill="#2e1510"/>
  <ellipse cx="309" cy="281" rx="15" ry="19" fill="#2e1510"/>
  <path d="M180 342c22 24 46 34 76 34s54-10 76-34" stroke="#ffcf9a" stroke-width="14" stroke-linecap="round" fill="none"/>
  <path d="M224 332l18 28M288 332l-18 28" stroke="#fff7ef" stroke-width="12" stroke-linecap="round"/>
  <path d="M150 339l-44 25M362 339l44 25" stroke="#ff8a3d" stroke-width="18" stroke-linecap="round"/>
  <circle cx="129" cy="365" r="11" fill="#ffd7aa"/>
  <circle cx="383" cy="365" r="11" fill="#ffd7aa"/>
</svg>

