<svg xmlns="http://www.w3.org/2000/svg" viewBox="0 0 512 512" role="img" aria-label="Zombie avatar">
  <defs>
    <linearGradient id="bg" x1="0" y1="0" x2="1" y2="1">
      <stop offset="0%" stop-color="#0d1f17"/>
      <stop offset="100%" stop-color="#2f7f5a"/>
    </linearGradient>
    <radialGradient id="glow" cx="0.5" cy="0.35" r="0.6">
      <stop offset="0%" stop-color="#9afec2" stop-opacity="0.35"/>
      <stop offset="100%" stop-color="#9afec2" stop-opacity="0"/>
    </radialGradient>
  </defs>
  <rect width="512" height="512" fill="url(#bg)"/>
  <circle cx="256" cy="256" r="228" fill="url(#glow)"/>
  <circle cx="256" cy="268" r="170" fill="#7fd4a0"/>
  <path d="M136 245c0-72 55-127 120-127s120 55 120 127v68H136z" fill="#8be3ad"/>
  <ellipse cx="191" cy="244" rx="40" ry="46" fill="#f4fff8"/>
  <ellipse cx="321" cy="244" rx="40" ry="46" fill="#f4fff8"/>
  <circle cx="191" cy="248" r="18" fill="#143328"/>
  <circle cx="321" cy="248" r="18" fill="#143328"/>
  <rect x="218" y="286" width="76" height="30" rx="12" fill="#315d48"/>
  <path d="M182 337c24 22 48 32 74 32 29 0 53-11 74-32" stroke="#204433" stroke-width="14" stroke-linecap="round" fill="none"/>
  <rect x="186" y="340" width="20" height="28" rx="6" fill="#f4fff8"/>
  <rect x="228" y="352" width="20" height="22" rx="6" fill="#f4fff8"/>
  <rect x="270" y="352" width="20" height="22" rx="6" fill="#f4fff8"/>
  <rect x="312" y="340" width="20" height="28" rx="6" fill="#f4fff8"/>
  <path d="M145 184l58-45M367 184l-58-45" stroke="#9afec2" stroke-width="16" stroke-linecap="round"/>
</svg>

